<svg width="30" height="30" viewBox="0 0 30 30" fill="none" xmlns="http://www.w3.org/2000/svg">
<circle cx="15" cy="15" r="15" fill="#4F5BD5"/>
<g clip-path="url(#clip0_2328_149)">
<path fill-rule="evenodd" clip-rule="evenodd" d="M8.32024 14.7805C12.0112 13.1724 14.4725 12.1122 15.7039 11.6C19.2201 10.1375 19.9507 9.88348 20.4269 9.87509C20.5316 9.87324 20.7658 9.8992 20.9175 10.0223C21.0456 10.1262 21.0809 10.2666 21.0977 10.3652C21.1146 10.4637 21.1356 10.6882 21.1189 10.8636C20.9283 12.8656 20.1039 17.7241 19.6844 19.9664C19.507 20.9152 19.1575 21.2333 18.8192 21.2645C18.0839 21.3321 17.5256 20.7786 16.8135 20.3117C15.6991 19.5813 15.0696 19.1265 13.9879 18.4137C12.7379 17.59 13.5482 17.1372 14.2606 16.3973C14.4471 16.2036 17.6866 13.257 17.7493 12.9897C17.7572 12.9562 17.7644 12.8316 17.6904 12.7658C17.6164 12.7 17.5071 12.7225 17.4283 12.7404C17.3165 12.7658 15.5363 13.9424 12.0877 16.2703C11.5824 16.6173 11.1247 16.7864 10.7147 16.7775C10.2626 16.7678 9.393 16.5219 8.74655 16.3118C7.95364 16.054 7.32346 15.9178 7.37833 15.48C7.40691 15.252 7.72088 15.0189 8.32024 14.7805Z" fill="white"/>
</g>
<defs>
<clipPath id="clip0_2328_149">
<rect width="15" height="15" fill="white" transform="translate(6.25 7.5)"/>
</clipPath>
</defs>
</svg>
