<svg width="35" height="35" viewBox="0 0 35 35" fill="none" xmlns="http://www.w3.org/2000/svg">
<circle cx="17.5" cy="17.5" r="17.5" fill="#C7C7C7"/>
<g clip-path="url(#clip0_2328_178)">
<path fill-rule="evenodd" clip-rule="evenodd" d="M9.37378 16.9111C13.6799 15.035 16.5514 13.7981 17.9881 13.2005C22.0902 11.4943 22.9426 11.1979 23.4982 11.1881C23.6204 11.1859 23.8936 11.2162 24.0706 11.3598C24.22 11.4811 24.2612 11.6449 24.2808 11.7599C24.3005 11.8748 24.325 12.1367 24.3055 12.3414C24.0832 14.6771 23.1214 20.3452 22.632 22.9613C22.4249 24.0682 22.0172 24.4394 21.6225 24.4757C20.7647 24.5546 20.1134 23.9088 19.2825 23.3642C17.9825 22.512 17.248 21.9815 15.9861 21.1498C14.5277 20.1888 15.4731 19.6606 16.3042 18.7973C16.5217 18.5714 20.3012 15.1336 20.3744 14.8218C20.3835 14.7828 20.392 14.6374 20.3056 14.5606C20.2193 14.4838 20.0918 14.5101 19.9998 14.531C19.8694 14.5606 17.7925 15.9333 13.7692 18.6492C13.1797 19.054 12.6457 19.2513 12.1673 19.2409C11.6399 19.2295 10.6253 18.9427 9.87113 18.6976C8.94608 18.3969 8.21086 18.2379 8.27488 17.7272C8.30823 17.4612 8.67453 17.1892 9.37378 16.9111Z" fill="#292929"/>
</g>
<defs>
<clipPath id="clip0_2328_178">
<rect width="17.5" height="17.5" fill="white" transform="translate(7.29199 8.75049)"/>
</clipPath>
</defs>
</svg>
